<svg xmlns="http://www.w3.org/2000/svg" viewBox="0 0 17.198 20" width="20" height="20"><path fill="#D49D26" d="M16.097 8.73a67.425 67.425 0 0 0-1.92-.175V5.153c0-3.565-2.189-5.109-5.56-5.153-3.364.044-5.553 1.588-5.553 5.153v3.371c-.657.056-1.307.125-1.964.206-.607 0-1.101.444-1.101 1.001v8.88c0 .557.394.813 1.101 1.001 5.297.513 9.775.519 15.003 0 .575-.081 1.101-.444 1.101-1.001v-8.88c-.006-.55-.494-1.001-1.107-1.001zM8.599 2.258h.05c3.502 0 3.271 2.896 3.271 3.796v2.351a67.93 67.93 0 0 0-6.585-.031V6.047c-.006-.894-.244-3.79 3.264-3.79z"/></svg>