<?xml version="1.0" encoding="UTF-8" standalone="no"?>
<!-- Created with Inkscape (http://www.inkscape.org/) -->

<svg
   width="180"
   height="180"
   viewBox="0 0 180 180"
   version="1.1"
   id="svg5"
   xml:space="preserve"
   inkscape:version="1.2.2 (732a01da63, 2022-12-09)"
   sodipodi:docname="Logo.svg"
   xmlns:inkscape="http://www.inkscape.org/namespaces/inkscape"
   xmlns:sodipodi="http://sodipodi.sourceforge.net/DTD/sodipodi-0.dtd"
   xmlns="http://www.w3.org/2000/svg"
   xmlns:svg="http://www.w3.org/2000/svg"><sodipodi:namedview
     id="namedview7"
     pagecolor="#505050"
     bordercolor="#ffffff"
     borderopacity="1"
     inkscape:showpageshadow="0"
     inkscape:pageopacity="0"
     inkscape:pagecheckerboard="1"
     inkscape:deskcolor="#505050"
     inkscape:document-units="px"
     showgrid="false"
     inkscape:zoom="1.6283098"
     inkscape:cx="18.424013"
     inkscape:cy="144.32143"
     inkscape:window-width="1920"
     inkscape:window-height="1009"
     inkscape:window-x="1912"
     inkscape:window-y="-8"
     inkscape:window-maximized="1"
     inkscape:current-layer="layer1"><inkscape:grid
       type="xygrid"
       id="grid975" /></sodipodi:namedview><defs
     id="defs2" /><g
     inkscape:label="Calque 1"
     inkscape:groupmode="layer"
     id="layer1"><g
       id="g1376"
       transform="matrix(1.2730912,0,0,1.2730912,-38.284317,-44.17264)"><path
         id="path1146"
         style="fill:#000000;stroke-width:0.17491"
         d="M 90.867188,49.751953 39.115234,73.599609 63.515625,85.429688 90.867188,72.453125 116.25,85.429688 142.04492,73.599609 Z M 31.777344,79.4375 v 33.06641 l 59.089844,29.37695 12.140622,-6.00586 a 36.405303,36.405303 0 0 1 -0.52343,-6.10352 36.405303,36.405303 0 0 1 36.40624,-36.406246 36.405303,36.405303 0 0 1 11.375,1.828125 V 79.4375 l -59.398432,28.68945 z m 59.089844,2.566406 -16.087891,7.626953 h -0.146485 l 16.234376,8.970703 16.189452,-8.970703 z" /><path
         d="m 15.3222,10.383 c 0.0574,0.5627 0.0903,1.1073 0.0903,1.617 0,0.9541 -0.1153,2.0315 -0.2917,3.1208 -1.0893,0.1764 -2.1667,0.2917 -3.1208,0.2917 -0.9498,0 -2.02687,-0.115 -3.12089,-0.292 C 8.70281,14.0312 8.5875,12.954 8.5875,12 c 0,-0.5095 0.03289,-1.0542 0.09039,-1.617 1.14819,0.1838 2.29361,0.3045 3.32211,0.3045 1.0286,0 2.174,-0.1207 3.3222,-0.3045 z"
         fill="#000000"
         id="path1148"
         style="fill:#000000;fill-opacity:1;stroke:#ffffff;stroke-width:0;stroke-linecap:round;stroke-dasharray:none;stroke-opacity:1;paint-order:stroke fill markers"
         transform="matrix(2.9456026,0,0,2.9456026,103.47861,94.754436)" /><path
         d="m 16.8752,10.0994 c 0.071,0.6585 0.1123,1.2996 0.1123,1.9006 0,0.8769 -0.0878,1.8389 -0.2276,2.8153 1.9826,-0.4137 3.8151,-0.9422 4.7968,-1.2431 0.3172,-0.0972 0.4419,-0.1359 0.6091,-0.2028 C 22.2494,13.336 22.326,13.302 22.4259,13.2543 22.4748,12.843 22.5,12.4244 22.5,12 22.5,10.878 22.324,9.79714 21.9982,8.78346 L 21.9133,8.81017 C 20.8868,9.12245 18.9652,9.6745 16.8752,10.0994 Z"
         fill="#000000"
         id="path1150"
         style="fill:#000000;fill-opacity:1;stroke:#ffffff;stroke-width:0;stroke-linecap:round;stroke-dasharray:none;stroke-opacity:1;paint-order:stroke fill markers"
         transform="matrix(2.9456026,0,0,2.9456026,103.47861,94.754436)" /><path
         d="M 21.4017,7.31948 C 20.3698,7.63221 18.579,8.14039 16.6599,8.53603 16.2178,5.84926 15.443,3.16951 15.0702,1.95598 c 2.772,0.84629 5.0571,2.80869 6.3315,5.3635 z"
         fill="#000000"
         id="path1152"
         style="fill:#000000;fill-opacity:1;stroke:#ffffff;stroke-width:0;stroke-linecap:round;stroke-dasharray:none;stroke-opacity:1;paint-order:stroke fill markers"
         transform="matrix(2.9456026,0,0,2.9456026,103.47861,94.754436)" /><path
         d="M 15.1117,8.82229 C 14.0253,8.99781 12.9513,9.1125 12,9.1125 11.0487,9.1125 9.97477,8.99781 8.88843,8.8223 9.30471,6.28005 10.0478,3.68306 10.4278,2.44333 10.525,2.12606 10.5637,2.00144 10.6306,1.83418 10.664,1.75062 10.698,1.67398 10.7457,1.57414 11.157,1.52518 11.5756,1.5 12,1.5 c 0.4434,0 0.8803,0.02748 1.3093,0.08083 0.0091,0.03481 0.0175,0.06596 0.0258,0.09543 0.0246,0.08707 0.0631,0.20944 0.1277,0.41478 l 0.0068,0.02157 c 0.3239,1.02962 1.1823,3.9014 1.6421,6.70968 z"
         fill="#000000"
         id="path1154"
         style="fill:#000000;fill-opacity:1;stroke:#ffffff;stroke-width:0;stroke-linecap:round;stroke-dasharray:none;stroke-opacity:1;paint-order:stroke fill markers"
         transform="matrix(2.9456026,0,0,2.9456026,103.47861,94.754436)" /><path
         d="M 7.34004,8.536 C 7.7801,5.86107 8.54986,3.19576 8.92192,1.98181 L 8.92983,1.95597 C 6.15777,2.80225 3.8727,4.76465 2.59835,7.31946 3.63018,7.63219 5.42095,8.14036 7.34004,8.536 Z"
         fill="#000000"
         id="path1156"
         style="fill:#000000;fill-opacity:1;stroke:#ffffff;stroke-width:0;stroke-linecap:round;stroke-dasharray:none;stroke-opacity:1;paint-order:stroke fill markers"
         transform="matrix(2.9456026,0,0,2.9456026,103.47861,94.754436)" /><path
         d="M 2.00184,8.78345 C 1.67598,9.79714 1.5,10.878 1.5,12 c 0,0.4389 0.02693,0.8715 0.07923,1.2963 l 0.16548,0.0552 0.00132,4e-4 0.00162,6e-4 0.00114,3e-4 c 0.05326,0.0177 1.61426,0.5332 3.66999,1.0447 0.58008,0.1443 1.19429,0.2869 1.82128,0.4176 C 7.10025,13.8388 7.0125,12.8769 7.0125,12 c 0,-0.6012 0.04124,-1.2423 0.11222,-1.9006 C 5.03428,9.67436 3.11218,9.12212 2.08597,8.80989 L 2.07883,8.80771 Z"
         fill="#000000"
         id="path1158"
         style="fill:#000000;fill-opacity:1;stroke:#ffffff;stroke-width:0;stroke-linecap:round;stroke-dasharray:none;stroke-opacity:1;paint-order:stroke fill markers"
         transform="matrix(2.9456026,0,0,2.9456026,103.47861,94.754436)" /><path
         d="m 12,16.9875 c 0.8769,0 1.8389,-0.0878 2.8153,-0.2276 -0.4137,1.9826 -0.9422,3.8151 -1.2431,4.7967 -0.0972,0.3173 -0.1359,0.4419 -0.2028,0.6092 C 13.336,22.2494 13.302,22.326 13.2543,22.4259 12.843,22.4748 12.4244,22.5 12,22.5 11.5756,22.5 11.157,22.4748 10.7457,22.4259 10.698,22.326 10.664,22.2494 10.6306,22.1658 10.5637,21.9986 10.525,21.8739 10.4278,21.5567 10.1269,20.5751 9.59846,18.7427 9.18478,16.7603 10.1579,16.8996 11.1201,16.9875 12,16.9875 Z"
         fill="#000000"
         id="path1160"
         style="fill:#000000;fill-opacity:1;stroke:#ffffff;stroke-width:0;stroke-linecap:round;stroke-dasharray:none;stroke-opacity:1;paint-order:stroke fill markers"
         transform="matrix(2.9456026,0,0,2.9456026,103.47861,94.754436)" /><path
         d="M 5.0385,15.9259 C 3.73853,15.6024 2.63135,15.2775 1.95597,15.0702 c 1.01661,3.33 3.64385,5.9572 6.97386,6.9738 L 8.92192,22.0182 C 8.59705,20.9582 7.96897,18.7917 7.52191,16.4784 6.6525,16.3103 5.80722,16.1171 5.0385,15.9259 Z"
         fill="#000000"
         id="path1162"
         style="fill:#000000;fill-opacity:1;stroke:#ffffff;stroke-width:0;stroke-linecap:round;stroke-dasharray:none;stroke-opacity:1;paint-order:stroke fill markers"
         transform="matrix(2.9456026,0,0,2.9456026,103.47861,94.754436)" /><path
         d="m 22.0182,15.0781 c -1.06,0.3249 -3.2267,0.953 -5.5401,1.4 -0.447,2.3134 -1.0751,4.48 -1.4,5.5401 l -0.0079,0.0258 c 3.33,-1.0166 5.9572,-3.6438 6.9738,-6.9738 z"
         fill="#000000"
         id="path1164"
         style="fill:#000000;fill-opacity:1;stroke:#ffffff;stroke-width:0;stroke-linecap:round;stroke-dasharray:none;stroke-opacity:1;paint-order:stroke fill markers"
         transform="matrix(2.9456026,0,0,2.9456026,103.47861,94.754436)" /><path
         d="m 1.6103,13.323 c 0.03635,0.0047 0.06598,0.0097 0.07581,0.0119 0.00861,0.0021 0.0221,0.0057 0.02699,0.007 l 0.01081,0.0031 0.00582,0.0018 0.00612,0.0019 0.00513,0.0016 C 1.7381,13.3494 1.67976,13.3348 1.6103,13.323 Z"
         fill="#000000"
         id="path1166"
         style="fill:#000000;fill-opacity:1;stroke:#ffffff;stroke-width:0;stroke-linecap:round;stroke-dasharray:none;stroke-opacity:1;paint-order:stroke fill markers"
         transform="matrix(2.9456026,0,0,2.9456026,103.47861,94.754436)" /></g></g></svg>
